<svg width="18" height="21" viewBox="0 0 18 21" fill="none" xmlns="http://www.w3.org/2000/svg">
<path fill-rule="evenodd" clip-rule="evenodd" d="M6.09011 4L6.09011 6.94538C3.73744 8.15306 2.40003 10.6917 2.86886 13.3063C3.39311 16.2291 5.99886 18.3273 9.05718 18.3008C12.1159 18.2743 14.6832 16.1144 15.1531 13.183C15.5684 10.5928 14.231 8.09644 11.909 6.9117L11.909 4.01111C14.9832 5.03388 17.1907 7.55173 17.8202 10.5064C18.0325 11.503 18.0584 12.5441 17.8895 13.5973C17.2139 17.8106 13.476 20.9613 9.08027 20.9996C4.6849 21.038 0.886199 17.955 0.132888 13.7543C-0.620424 9.55319 1.89333 5.41517 6.04412 4.01111C6.05963 4.00573 6.07441 4.00466 6.0903 4L6.09011 4Z" fill="#E1090F"/>
<path d="M9 2L9 10Z" fill="#E1090F"/>
<path d="M9 2L9 10" stroke="#E1090F" stroke-width="2.5" stroke-linecap="round" stroke-linejoin="round"/>
</svg>
