<svg width="16" height="16" viewBox="0 0 16 16" fill="none" xmlns="http://www.w3.org/2000/svg">
<ellipse cx="7.72414" cy="8" rx="7.72414" ry="8" fill="#D9D9D9"/>
<path d="M4.8418 5.60742C4.74023 5.44336 4.63477 5.3125 4.52539 5.21484C4.41602 5.11719 4.30664 5.04297 4.19727 4.99219C4.08789 4.94141 3.94141 4.88477 3.75781 4.82227C3.58203 4.76367 3.44531 4.71484 3.34766 4.67578V4.37109H5.39258L10.9062 10.0723V6.38672C10.9062 6.01562 10.8535 5.67773 10.748 5.37305C10.7051 5.24805 10.6465 5.15039 10.5723 5.08008C10.498 5.00977 10.418 4.95898 10.332 4.92773C10.2461 4.89648 10.1309 4.86328 9.98633 4.82812C9.96289 4.82031 9.90234 4.80469 9.80469 4.78125C9.71094 4.75391 9.625 4.7207 9.54688 4.68164C9.54688 4.58008 9.55273 4.47656 9.56445 4.37109H12.6523V4.6875C12.543 4.73828 12.4297 4.78711 12.3125 4.83398C12.0273 4.95898 11.8301 5.0625 11.7207 5.14453C11.6113 5.22656 11.5332 5.35547 11.4863 5.53125C11.4434 5.70312 11.4199 5.98633 11.416 6.38086C11.416 6.58008 11.4121 6.875 11.4043 7.26562C11.4004 7.5625 11.3965 7.93359 11.3926 8.37891C11.3887 8.82031 11.3867 9.33789 11.3867 9.93164C11.3867 10.1895 11.4102 10.5723 11.457 11.0801C11.4961 11.5098 11.5176 11.834 11.5215 12.0527C11.4473 12.0801 11.3516 12.0938 11.2344 12.0938C11.1094 12.0938 10.998 12.0801 10.9004 12.0527C10.6191 11.709 10.2988 11.3438 9.93945 10.957L5.31055 6.08789V10.2012C5.31055 10.4629 5.34375 10.7266 5.41016 10.9922C5.44141 11.125 5.49805 11.2285 5.58008 11.3027C5.66211 11.373 5.75 11.4238 5.84375 11.4551C5.94141 11.4863 6.07227 11.5176 6.23633 11.5488C6.46289 11.584 6.63086 11.6309 6.74023 11.6895C6.74023 11.791 6.73438 11.8945 6.72266 12H3.41797C3.41016 11.9297 3.40625 11.8242 3.40625 11.6836L3.67578 11.6133C3.92578 11.5508 4.12305 11.4902 4.26758 11.4316C4.41602 11.373 4.54297 11.2773 4.64844 11.1445C4.75781 11.0117 4.82227 10.8301 4.8418 10.5996V5.60742Z" fill="black"/>
</svg>
