<svg width="22" height="22" viewBox="0 0 22 22" fill="none" xmlns="http://www.w3.org/2000/svg">
<g clip-path="url(#clip0_128_160)">
<path d="M22.0275 4.59262C21.2146 4.95355 20.3431 5.1959 19.4271 5.3059C20.3621 4.74559 21.0805 3.85871 21.4174 2.8034C20.5442 3.32074 19.5731 3.69715 18.5436 3.89996C17.7186 3.01996 16.543 2.47168 15.2419 2.47168C12.7428 2.47168 10.7164 4.49637 10.7164 6.99543C10.7164 7.34949 10.7577 7.69496 10.835 8.02668C7.0744 7.83762 3.74174 6.03637 1.50909 3.2984C1.11893 3.96871 0.897212 4.74559 0.897212 5.57402C0.897212 7.14324 1.69471 8.52855 2.90987 9.34152C2.16737 9.31746 1.46956 9.11293 0.859399 8.77434C0.859399 8.79324 0.859399 8.81215 0.859399 8.83105C0.859399 11.0242 2.42002 12.8512 4.48768 13.2689C4.10956 13.372 3.70909 13.427 3.29659 13.427C3.0044 13.427 2.72081 13.3995 2.44409 13.3445C3.02159 15.1406 4.69221 16.452 6.67049 16.4881C5.12362 17.7015 3.17284 18.4234 1.0519 18.4234C0.685806 18.4234 0.326587 18.4028 -0.0257568 18.3598C1.97487 19.6454 4.35362 20.3931 6.9094 20.3931C15.2316 20.3931 19.7828 13.4992 19.7828 7.52137C19.7828 7.32543 19.7777 7.12777 19.7708 6.93527C20.6542 6.29762 21.4208 5.50012 22.0275 4.59262Z" fill="white"/>
</g>
<defs>
<clipPath id="clip0_128_160">
<rect width="22" height="22" fill="white"/>
</clipPath>
</defs>
</svg>
