<svg width="25" height="25" viewBox="0 0 25 25" fill="none" xmlns="http://www.w3.org/2000/svg">
<path d="M8.42972 2.73438C5.28948 2.73438 2.73438 5.29099 2.73438 8.43201V16.5695C2.73438 19.7101 5.29099 22.2656 8.43201 22.2656H16.5695C19.7101 22.2656 22.2656 19.709 22.2656 16.568V8.42972C22.2656 5.28948 19.709 2.73438 16.568 2.73438H8.42972ZM18.3594 5.85938C18.7906 5.85938 19.1406 6.20937 19.1406 6.64062C19.1406 7.07188 18.7906 7.42188 18.3594 7.42188C17.9281 7.42188 17.5781 7.07188 17.5781 6.64062C17.5781 6.20937 17.9281 5.85938 18.3594 5.85938ZM12.5 7.42188C15.3008 7.42188 17.5781 9.69922 17.5781 12.5C17.5781 15.3008 15.3004 17.5781 12.5 17.5781C9.69922 17.5781 7.42188 15.3004 7.42188 12.5C7.42188 9.69961 9.69922 7.42188 12.5 7.42188ZM12.5 8.98438C10.5582 8.98438 8.98438 10.5582 8.98438 12.5C8.98438 14.4418 10.5582 16.0156 12.5 16.0156C14.4418 16.0156 16.0156 14.4418 16.0156 12.5C16.0156 10.5582 14.4418 8.98438 12.5 8.98438Z" fill="white"/>
</svg>
