<svg width="22" height="13" viewBox="0 0 22 13" fill="none" xmlns="http://www.w3.org/2000/svg">
<path d="M5.69211 12.0092C7.00352 12.0075 8.27422 11.5439 9.28996 10.6967C10.3057 9.84957 11.0043 8.67062 11.2681 7.35867H13.6611V9.68396H15.9379V7.35867H18.2147V10.8466H20.4916V7.35867H21.63V5.03338H11.2681C11.0043 3.72143 10.3057 2.54248 9.28996 1.69532C8.27422 0.848158 7.00352 0.384603 5.69211 0.382812C2.55348 0.382812 0 2.99062 0 6.19603C0 9.40143 2.55348 12.0092 5.69211 12.0092ZM5.69211 2.7081C7.57505 2.7081 9.10737 4.27302 9.10737 6.19603C9.10737 8.11904 7.57505 9.68396 5.69211 9.68396C3.80916 9.68396 2.27684 8.11904 2.27684 6.19603C2.27684 4.27302 3.80916 2.7081 5.69211 2.7081Z" fill="white"/>
</svg>
