<svg width="287" height="287" xmlns="http://www.w3.org/2000/svg">

 <g id="imagebot_2" label="Layer 1">
  <ellipse label="Layer 1" id="imagebot_6" cx="381.54001" cy="525.82001" rx="143.45773" ry="143.45013" fill="#c00000" transform="translate(-6.54297, -6.55078) matrix(1, 0, 0, 1, -231.54, -375.82)"/>
  <g id="imagebot_3" label="Calque 1" transform="translate(-6.54297, -6.55078) matrix(3.81893, 0, 0, 3.81893, -1629.68, -1973.28)" fill="#ffffff">
   <g id="imagebot_4" transform="translate(-560.19,271.89)" fill="#ffffff">
    <path id="imagebot_5" d="M1005.11908,267.46484C1004.08978,267.46478 1003.24597,268.30606 1003.24609,269.33594L1003.24609,298.85547C1003.24567,299.88556 1004.0885,300.73056 1005.11908,300.73047L1047.29102,300.73047C1048.32166,300.73056 1049.16455,299.88565 1049.16406,298.85547L1049.16406,269.33594C1049.16406,268.30609 1048.32031,267.46478 1047.29102,267.46484L1005.11908,267.46484zM1010.11127,271.94922L1042.28711,271.94922L1026.20117,286.00391L1010.11127,271.94922zM1045.41797,274.1875L1045.41797,294.95117L1033.6543,284.46484L1045.41797,274.1875zM1006.99219,274.19919L1018.80469,284.52145L1006.99219,295.0527L1006.99219,274.19919zM1030.8125,286.94724L1042.00391,296.92575L1010.52148,296.92575L1021.64838,287.00583L1024.96472,289.90427C1025.66809,290.51828 1026.72632,290.51822 1027.42969,289.90427L1030.8125,286.94724z" stroke-dashoffset="0" stroke-miterlimit="4" stroke-linejoin="round" stroke-linecap="round" stroke-width="2.952" fill-rule="nonzero" fill="#ffffff" clip-rule="nonzero"/>
   </g>
  </g>
  <title label="Layer 1"/>
 </g>
 <metadata id="imagebot_1">image/svg+xmlRygle2015-03-29RygleiconmailsnailcommunicationcommunicateaddressenvelopePublic Domain</metadata>
</svg>