<svg width="21" height="18" viewBox="0 0 21 18" fill="none" xmlns="http://www.w3.org/2000/svg">
<path d="M3.45833 0.297852C2.54113 0.297852 1.66149 0.669963 1.01292 1.33232C0.364359 1.99469 0 2.89304 0 3.82976V4.18472L10.375 9.89053L20.75 4.18649V3.82976C20.75 2.89304 20.3856 1.99469 19.7371 1.33232C19.0885 0.669963 18.2089 0.297852 17.2917 0.297852H3.45833ZM20.75 6.19085L10.7848 11.6706C10.6589 11.7399 10.518 11.7761 10.375 11.7761C10.232 11.7761 10.0911 11.7399 9.96519 11.6706L0 6.19085V14.4255C0 15.3622 0.364359 16.2606 1.01292 16.9229C1.66149 17.5853 2.54113 17.9574 3.45833 17.9574H17.2917C18.2089 17.9574 19.0885 17.5853 19.7371 16.9229C20.3856 16.2606 20.75 15.3622 20.75 14.4255V6.19085Z" fill="white"/>
</svg>
