<svg width="67" height="67" viewBox="0 0 67 67" fill="none" xmlns="http://www.w3.org/2000/svg">
<g clip-path="url(#clip0_126_86)">
<path d="M33.4898 66.9767C51.9859 66.9767 66.9799 51.9835 66.9799 33.4884C66.9799 14.9932 51.9859 0 33.4898 0C14.9937 0 -0.000366211 14.9932 -0.000366211 33.4884C-0.000366211 51.9835 14.9937 66.9767 33.4898 66.9767Z" fill="#E1090F"/>
<path d="M14.6909 18.6592C13.7733 18.6591 13.021 19.4091 13.0211 20.3273V46.6448C13.0207 47.5631 13.7721 48.3165 14.6909 48.3164H52.2884C53.2072 48.3165 53.9587 47.5632 53.9582 46.6448V20.3273C53.9582 19.4092 53.206 18.6591 52.2884 18.6592H14.6909ZM19.1416 22.6571H47.8272L33.4862 35.1873L19.1416 22.6571ZM50.6185 24.6526V43.164L40.1309 33.8151L50.6185 24.6526ZM16.3609 24.663L26.892 33.8656L16.3609 43.2545V24.663ZM37.5973 36.0283L47.5748 44.9244H19.5073L29.4273 36.0805L32.3839 38.6645C33.0109 39.2119 33.9544 39.2119 34.5815 38.6645L37.5973 36.0283Z" fill="white"/>
</g>
<defs>
<clipPath id="clip0_126_86">
<rect width="67" height="67" fill="white"/>
</clipPath>
</defs>
</svg>
