<svg width="45" height="32" viewBox="0 0 45 32" fill="none" xmlns="http://www.w3.org/2000/svg">
<path d="M18 13.4994H11.4772L11.4795 13.4792C11.7733 12.0406 12.3483 10.6742 13.1715 9.45842C14.3965 7.65351 16.1148 6.23903 18.1215 5.38367C18.801 5.09567 19.5097 4.87517 20.232 4.72892C21.7303 4.42516 23.2742 4.42516 24.7725 4.72892C26.9257 5.17013 28.9015 6.2351 30.4537 7.79117L33.6398 4.61417C32.2038 3.17786 30.5049 2.03126 28.6358 1.23692C27.6825 0.833335 26.6913 0.525814 25.677 0.318919C23.5841 -0.106306 21.4271 -0.106306 19.3343 0.318919C18.3192 0.526671 17.3273 0.834941 16.3733 1.23917C13.5619 2.4319 11.1553 4.41187 9.44325 6.94067C8.291 8.64584 7.48522 10.5609 7.07175 12.5769C7.00875 12.8807 6.975 13.1912 6.93 13.4994H0L9 22.4994L18 13.4994ZM27 17.9994H33.5228L33.5205 18.0174C32.9326 20.9014 31.2327 23.4379 28.7888 25.0779C27.5733 25.9018 26.2068 26.4769 24.768 26.7699C23.2705 27.0737 21.7273 27.0737 20.2298 26.7699C18.7912 26.4761 17.4248 25.9011 16.209 25.0779C15.6119 24.674 15.0544 24.2145 14.544 23.7054L11.3625 26.8869C12.7991 28.3228 14.4988 29.4687 16.3687 30.2619C17.3227 30.6669 18.3195 30.9752 19.3275 31.1799C21.4196 31.6054 23.5759 31.6054 25.668 31.1799C29.7012 30.3428 33.2489 27.9656 35.5567 24.5537C36.7079 22.8498 37.5129 20.9363 37.926 18.9219C37.9868 18.6182 38.0228 18.3077 38.0678 17.9994H45L36 8.99942L27 17.9994Z" fill="#FAFAFA"/>
</svg>
